HIERARCHY
ROOT Hips
{
	OFFSET 0.000001 -0.000035 -0.000001
	CHANNELS 6 Xposition Yposition Zposition Zrotation Xrotation Yrotation
	JOINT RHip
	{
		OFFSET -0.104022 0.004302 -0.005826
		CHANNELS 3 Zrotation Xrotation Yrotation
		JOINT RKnee
		{
			OFFSET 0.046700 0.238435 -0.316769
			CHANNELS 3 Zrotation Xrotation Yrotation
			JOINT RFoot
			{
				OFFSET 0.048913 0.216782 -0.353015
				CHANNELS 3 Zrotation Xrotation Yrotation
				End Site
				{
					OFFSET 0 0 0
				}
			}
		}
	}
	JOINT LHip
	{
		OFFSET 0.104020 -0.004235 0.005827
		CHANNELS 3 Zrotation Xrotation Yrotation
		JOINT LKnee
		{
			OFFSET -0.026669 0.238977 -0.315891
			CHANNELS 3 Zrotation Xrotation Yrotation
			JOINT LFoot
			{
				OFFSET -0.049255 0.220780 -0.358986
				CHANNELS 3 Zrotation Xrotation Yrotation
				End Site
				{
					OFFSET 0 0 0
				}
			}
		}
	}
	JOINT Spine
	{
		OFFSET -0.009335 -0.218626 0.053763
		CHANNELS 3 Zrotation Xrotation Yrotation
		JOINT Thorax
		{
			OFFSET -0.006747 -0.254691 -0.047452
			CHANNELS 3 Zrotation Xrotation Yrotation
			JOINT Neck
			{
				OFFSET 0.011492 -0.050851 -0.078856
				CHANNELS 3 Zrotation Xrotation Yrotation
				JOINT Head
				{
					OFFSET -0.013675 -0.096756 0.041048
					CHANNELS 3 Zrotation Xrotation Yrotation
					End Site
					{
						OFFSET 0 0 0
					}
				}
			}
			JOINT LShoulder
			{
				OFFSET 0.116482 0.043069 0.018895
				CHANNELS 3 Zrotation Xrotation Yrotation
				JOINT LElbow
				{
					OFFSET 0.034233 0.237753 0.110798
					CHANNELS 3 Zrotation Xrotation Yrotation
					JOINT LWrist
					{
						OFFSET -0.016879 0.221336 0.067457
						CHANNELS 3 Zrotation Xrotation Yrotation
						End Site
						{
							OFFSET 0 0 0
						}
					}
				}
			}
			JOINT RShoulder
			{
				OFFSET -0.114854 0.048067 0.001229
				CHANNELS 3 Zrotation Xrotation Yrotation
				JOINT RElbow
				{
					OFFSET -0.032778 0.239235 0.100974
					CHANNELS 3 Zrotation Xrotation Yrotation
					JOINT RWrist
					{
						OFFSET 0.017391 0.221299 0.067053
						CHANNELS 3 Zrotation Xrotation Yrotation
						End Site
						{
							OFFSET 0 0 0
						}
					}
				}
			}
		}
	}
}
MOTION
Frames: 7
Frame Time: 0.020000
0.000001 -0.000039 -0.000001 0.778535 0.015047 1.696352 0.778535 0.015047 1.696352 -1.741886 -2.819042 -1.782663 -0.553880 -5.120817 0.301265 0.780386 0.013854 1.697784 1.794480 -3.102917 2.054176 0.734017 -4.947288 0.061834 2.166944 -2.208568 0.587787 0.008359 1.362228 -0.037628 -3.043199 -0.809301 4.480567 4.653892 -3.180230 2.309390 -2.467434 -0.588901 2.846930 -2.642432 2.274507 0.862481 -1.366060 4.028546 0.682333 0.061196 1.212172 2.899491 -1.917881 0.872663 0.915344 -0.973210 5.012105 -0.143846
0.000001 -0.000039 -0.000000 0.719804 0.016581 1.621522 0.719804 0.016581 1.621522 -1.768047 -2.769921 -1.827807 -0.493944 -5.266927 0.441051 0.721396 0.015466 1.623194 1.783435 -3.078656 2.041908 0.775339 -5.213376 0.066551 2.059716 -2.159260 0.562120 -0.173101 1.529194 -0.010596 -2.958626 -0.858736 4.339264 4.335443 -3.356019 2.202842 -2.533139 -0.537862 2.735542 -2.697057 2.289317 0.884777 -1.451066 4.000680 0.703596 -0.166561 1.166963 2.781582 -1.987818 0.908956 0.948757 -0.843992 5.155980 -0.190440
0.000001 -0.000039 -0.000000 0.829290 0.007213 1.572249 0.829290 0.007213 1.572249 -1.774777 -2.826161 -1.825837 -0.458258 -5.411064 0.539208 0.830626 0.006146 1.573992 1.767607 -3.116903 2.016464 0.850371 -5.700067 0.073762 1.963919 -2.136056 0.539674 -0.337874 1.662214 0.014053 -2.879067 -1.121103 4.151943 4.077984 -3.504778 2.118037 -2.554542 -0.509357 2.664903 -2.721189 2.271083 0.898744 -1.604421 4.052104 0.748651 -0.291668 1.138927 2.709764 -2.059251 1.138867 1.006538 -0.576655 5.399646 -0.281247
0.000001 -0.000038 -0.000000 0.948454 -0.000386 1.593833 0.948454 -0.000386 1.593833 -1.761429 -3.009698 -1.771431 -0.401705 -5.481939 0.654465 0.949557 -0.001448 1.595765 1.708883 -3.217061 1.926491 0.942529 -6.119169 0.127004 1.887706 -2.081780 0.520806 -0.467820 1.827756 0.031374 -2.714222 -1.134917 3.897912 3.676783 -3.399354 1.947299 -2.473595 -0.505993 2.611811 -2.739744 2.093192 0.936729 -1.743830 3.997783 0.783042 -0.484020 1.119354 2.655757 -2.147638 1.290855 1.061528 -0.215601 5.533061 -0.385958
0.000002 -0.000038 -0.000000 0.994050 -0.003794 1.587138 0.994050 -0.003794 1.587138 -1.707525 -3.095721 -1.681195 -0.360723 -5.487959 0.726277 0.994822 -0.004824 1.589254 1.677949 -3.343419 1.871034 1.046118 -6.431040 0.227220 1.771684 -1.984655 0.491539 -0.565729 1.925479 0.045033 -2.634430 -1.198544 3.760749 3.470696 -3.315002 1.855711 -2.488806 -0.489553 2.572627 -2.784836 1.937481 0.983128 -1.807634 3.969188 0.798585 -0.571391 1.095109 2.595205 -2.162223 1.470418 1.089499 0.123383 5.608963 -0.479553
0.000002 -0.000038 -0.000000 1.019491 -0.008051 1.510823 1.019491 -0.008051 1.510823 -1.649023 -3.153835 -1.590210 -0.319599 -5.328486 0.755273 1.020003 -0.009017 1.512850 1.561159 -3.456283 1.701118 1.263041 -7.009214 0.457408 1.683116 -1.963559 0.470617 -0.595429 1.915965 0.050386 -2.615861 -1.165993 3.740598 3.261200 -3.107836 1.747699 -2.504089 -0.464027 2.507266 -2.766994 1.756602 1.005015 -1.962918 3.900851 0.836611 -0.654397 1.044891 2.473979 -2.173415 1.591066 1.108855 0.501063 5.641869 -0.579306
0.000002 -0.000038 0.000000 1.071500 -0.014340 1.426812 1.071500 -0.014340 1.426812 -1.612979 -3.164831 -1.539095 -0.323542 -5.279082 0.735718 1.072091 -0.015246 1.429248 1.437698 -3.569729 1.521949 1.439742 -7.462935 0.650740 1.545918 -2.023110 0.440936 -0.601691 1.863818 0.053108 -2.590039 -1.182906 3.697131 3.162907 -2.753188 1.665694 -2.543319 -0.433192 2.439242 -2.721362 1.641643 1.003179 -2.212449 3.945634 0.907334 -0.740965 0.980980 2.320987 -2.156905 1.622863 1.106015 0.900592 5.664355 -0.683645
